<svg width="24" height="24" viewBox="0 0 24 24" fill="none" xmlns="http://www.w3.org/2000/svg">
<path d="M13.0819 10.712L8.29587 4.002C8.24037 3.92404 8.16702 3.86049 8.08195 3.81666C7.99689 3.77282 7.90257 3.74996 7.80687 3.75H5.28087C5.17077 3.75014 5.06283 3.78057 4.96888 3.83797C4.87492 3.89536 4.79856 3.9775 4.74817 4.07539C4.69778 4.17328 4.6753 4.28315 4.68318 4.39296C4.69107 4.50278 4.72901 4.60831 4.79287 4.698L10.9199 13.288M13.0819 10.712L19.2089 19.302C19.2727 19.3917 19.3107 19.4972 19.3186 19.607C19.3264 19.7169 19.304 19.8267 19.2536 19.9246C19.2032 20.0225 19.1268 20.1046 19.0329 20.162C18.9389 20.2194 18.831 20.2499 18.7209 20.25H16.1949C16.0992 20.25 16.0049 20.2272 15.9198 20.1833C15.8347 20.1395 15.7614 20.076 15.7059 19.998L10.9199 13.288M13.0819 10.712L18.9239 3.75M10.9199 13.288L5.07787 20.25" stroke="white" stroke-linecap="round" stroke-linejoin="round"/>
</svg>
